<svg width="42" height="17" viewBox="0 0 42 17" fill="none" xmlns="http://www.w3.org/2000/svg">
<path d="M12.3377 1.09943L4.86752 16H4.15229L5.94036 12.404L0 1.09943H0.715227L6.31784 11.7285L11.6224 1.09943H12.3377ZM25.9686 0.702086C27.3725 0.702086 28.6639 1.05308 29.8427 1.75506C31.0215 2.45704 31.9553 3.41068 32.644 4.61597C33.346 5.80801 33.697 7.0994 33.697 8.49011C33.697 9.92057 33.346 11.2451 32.644 12.4636C31.9553 13.6689 31.0149 14.6291 29.8229 15.3444C28.6441 16.0464 27.3527 16.3973 25.9487 16.3973C24.7567 16.3973 23.6375 16.1324 22.5911 15.6027C21.5448 15.0596 20.6574 14.3311 19.9289 13.4172C19.2004 12.4901 18.6971 11.457 18.419 10.3179H14.5647V16H13.9091V1.09943H14.5647V9.74176H18.2998C18.2335 9.27819 18.2004 8.86097 18.2004 8.49011C18.2004 7.11264 18.5514 5.82788 19.2534 4.63584C19.9554 3.43054 20.9024 2.47691 22.0944 1.77493C23.2865 1.0597 24.5779 0.702086 25.9686 0.702086ZM25.9487 15.8212C27.2202 15.8212 28.399 15.4967 29.4851 14.8477C30.5712 14.1854 31.4321 13.298 32.0679 12.1855C32.7169 11.0596 33.0414 9.8411 33.0414 8.52985C33.0414 7.23184 32.7235 6.02655 32.0877 4.91398C31.452 3.8014 30.5911 2.92061 29.505 2.27161C28.4189 1.60936 27.2401 1.27824 25.9686 1.27824C24.6838 1.27824 23.4984 1.60936 22.4123 2.27161C21.3262 2.92061 20.4587 3.8014 19.8097 4.91398C19.1739 6.02655 18.856 7.23184 18.856 8.52985C18.856 9.8411 19.1739 11.0596 19.8097 12.1855C20.4587 13.298 21.3262 14.1854 22.4123 14.8477C23.4984 15.4967 24.6772 15.8212 25.9487 15.8212ZM37.0895 1.67559H33.6525V1.09943H41.1425V1.67559H37.7451V16H37.0895V1.67559Z" fill="#F5EBDF"/>
</svg>
